<?xml version="1.0" standalone="no"?>
<!DOCTYPE svg PUBLIC "-//W3C//DTD SVG 20010904//EN"
 "http://www.w3.org/TR/2001/REC-SVG-20010904/DTD/svg10.dtd">
<svg version="1.0" xmlns="http://www.w3.org/2000/svg"
 width="228.000000pt" height="228.000000pt" viewBox="0 0 228.000000 228.000000"
 preserveAspectRatio="xMidYMid meet">
<metadata>
Created by potrace 1.11, written by Peter Selinger 2001-2013
</metadata>
<g transform="translate(0.000000,228.000000) scale(0.100000,-0.100000)"
fill="#000000" stroke="none">
<path d="M1904 1510 c-22 -9 -49 -28 -61 -41 -47 -51 -51 -79 -52 -329 0 -129
4 -251 9 -270 12 -43 62 -98 106 -116 109 -46 235 25 252 143 12 82 6 465 -8
507 -32 98 -151 150 -246 106z m101 -112 c14 -6 26 -16 27 -22 0 -6 2 -115 3
-243 2 -230 2 -232 -21 -253 -27 -26 -78 -20 -94 10 -6 11 -10 115 -10 247 0
217 1 230 20 251 24 25 38 27 75 10z"/>
<path d="M250 1212 c0 -185 -4 -311 -10 -322 -11 -21 -69 -41 -98 -33 -11 2
-19 -1 -20 -9 0 -7 -4 -32 -7 -55 -5 -39 -4 -43 20 -49 36 -9 111 2 144 22 32
19 68 70 79 110 5 16 8 166 7 334 l0 305 -57 0 -58 1 0 -304z"/>
<path d="M469 1512 c-1 -4 -2 -177 -3 -384 l-1 -378 166 0 166 0 -2 53 c-2 28
-3 55 -4 60 -1 4 -48 7 -105 7 l-104 0 1 100 0 100 79 0 78 0 0 60 c0 41 -4
60 -12 61 -7 0 -43 0 -79 1 l-66 0 1 101 1 102 105 1 105 0 0 50 c1 27 -1 54
-3 61 -4 12 -321 17 -323 5z"/>
<path d="M876 1513 c-3 -4 -6 -30 -6 -60 0 -43 3 -53 18 -54 9 -1 37 -2 62 -3
l44 -1 1 -322 0 -323 60 0 60 0 0 324 0 324 60 -1 60 -1 0 60 0 59 -177 2
c-97 1 -179 -1 -182 -4z"/>
<path d="M1329 1482 c-1 -39 -1 -684 0 -715 1 -16 9 -18 59 -15 l57 3 0 138
c-1 131 0 138 20 142 52 10 53 8 88 -139 l34 -141 65 -3 66 -3 -44 168 c-43
165 -43 168 -24 188 32 35 42 76 41 187 0 186 -41 223 -251 226 l-110 1 -1
-37z m212 -91 c26 -2 39 -50 36 -130 -3 -60 -7 -77 -24 -91 -17 -14 -66 -19
-103 -11 -4 1 -5 207 -1 232 1 5 22 5 92 0z"/>
</g>
</svg>
